<svg xmlns="http://www.w3.org/2000/svg" viewBox="0 0 512 512">
  <rect width="512" height="512" fill="#10b981"/>
  <g fill="#ffffff">
    <!-- Leaf icon representing agriculture -->
    <path d="M256 64c-70.7 0-128 57.3-128 128 0 35.3 14.3 67.3 37.5 90.5L256 373l90.5-90.5C369.7 259.3 384 227.3 384 192c0-70.7-57.3-128-128-128zm0 48c44.2 0 80 35.8 80 80 0 22.1-8.9 42.1-23.4 56.6L256 305.2l-56.6-56.6C184.9 234.1 176 214.1 176 192c0-44.2 35.8-80 80-80z"/>
    <text x="256" y="420" font-size="120" font-weight="bold" text-anchor="middle" font-family="Arial, sans-serif">🌱</text>
  </g>
</svg>
